<svg viewBox="0 0 574 80" width="60%" height="60%" style="
    height: 100px;
"><defs id="SvgjsDefs5122"><linearGradient id="SvgjsLinearGradient5137"><stop id="SvgjsStop5138" stop-color="#25235e" offset="0"></stop><stop id="SvgjsStop5139" stop-color="#ae4792" offset="1"></stop></linearGradient><linearGradient id="SvgjsLinearGradient5140"><stop id="SvgjsStop5141" stop-color="#b88746" offset="0"></stop><stop id="SvgjsStop5142" stop-color="#fdf5a6" offset="1"></stop></linearGradient></defs><g id="SvgjsG5123" featurekey="root" fill="#f3f3f7"></g><g id="SvgjsG5124" featurekey="symbol1" fill="url(#SvgjsLinearGradient5140)" transform="matrix(0.7526881720430108,0,0,0.7526881720430108,0,5)"><path d="M23.8,71.4c0.2,0.6,0.4,1.2,0.7,1.8c4.9,11.6,16.4,19.7,29.9,19.7l36.3,0.2L46.3,48.9L23.8,71.4z"></path><path d="M69.2,21.5c-0.2-0.6-0.4-1.2-0.7-1.8C63.6,8.1,52.1,0,38.7,0H2.2l44.3,44.3L69.2,21.5z"></path><path d="M21.3,23.9c-0.6,0.2,0-0.8-0.6-0.6C9.1,28.3,0,40.8,0,54.2l0,36.5l44.1-44.1L21.3,23.9z"></path><path d="M48.7,46.5l22.7,22.7c0.6-0.2,1.2-0.4,1.8-0.7C84.8,63.7,93,52.2,93,38.8l0-36.5L48.7,46.5z"></path></g><g id="SvgjsG5125" featurekey="text1" fill="url(#SvgjsLinearGradient5137)" transform="matrix(2.9585795032279143,0,0,2.9585795032279143,86.39053256872614,-15.207090257268192)"><path d="M9.2 24.3 q-1.66 0 -3.11 -0.63 t-2.53 -1.71 t-1.71 -2.53 t-0.63 -3.11 q0 -1.64 0.63 -3.07 t1.71 -2.48 t2.53 -1.65 t3.11 -0.6 q1.6 0 3.04 0.59 t2.58 1.73 q0.28 0.28 0.28 0.64 t-0.28 0.62 q-0.26 0.26 -0.62 0.26 t-0.62 -0.26 q-0.9 -0.9 -2.02 -1.36 t-2.36 -0.46 q-1.3 0 -2.43 0.47 t-1.97 1.28 t-1.32 1.91 t-0.48 2.38 t0.49 2.41 t1.33 1.97 t1.97 1.33 t2.41 0.49 q1.24 0 2.36 -0.46 t2.02 -1.34 q0.26 -0.28 0.62 -0.28 t0.62 0.28 q0.28 0.26 0.28 0.62 t-0.28 0.62 q-1.14 1.14 -2.58 1.74 t-3.04 0.6 z M22.26 24.3 q-1.06 0 -2 -0.41 t-1.64 -1.11 t-1.11 -1.63 t-0.41 -1.99 t0.41 -2 t1.11 -1.64 t1.64 -1.11 t2 -0.41 t1.99 0.41 t1.63 1.11 t1.11 1.64 t0.41 2 t-0.41 1.99 t-1.11 1.63 t-1.63 1.11 t-1.99 0.41 z M22.26 15.78 q-0.7 0 -1.31 0.27 t-1.07 0.73 t-0.73 1.07 t-0.27 1.31 t0.27 1.31 t0.73 1.07 t1.07 0.72 t1.31 0.26 t1.31 -0.26 t1.07 -0.72 t0.72 -1.07 t0.26 -1.31 t-0.27 -1.31 t-0.72 -1.07 t-1.07 -0.73 t-1.3 -0.27 z M34.12 24.3 q-1.06 0 -2 -0.41 t-1.64 -1.11 t-1.11 -1.63 t-0.41 -1.99 t0.41 -2 t1.11 -1.64 t1.64 -1.11 t2 -0.41 t1.99 0.41 t1.63 1.11 t1.11 1.64 t0.41 2 t-0.41 1.99 t-1.11 1.63 t-1.63 1.11 t-1.99 0.41 z M34.12 15.78 q-0.7 0 -1.31 0.27 t-1.07 0.73 t-0.73 1.07 t-0.27 1.31 t0.27 1.31 t0.73 1.07 t1.07 0.72 t1.31 0.26 t1.31 -0.26 t1.07 -0.72 t0.72 -1.07 t0.26 -1.31 t-0.27 -1.31 t-0.72 -1.07 t-1.07 -0.73 t-1.3 -0.27 z M42.58 24.3 q-0.36 0 -0.62 -0.26 t-0.26 -0.62 l0 -14.02 q0 -0.36 0.26 -0.62 t0.62 -0.26 t0.62 0.26 t0.26 0.62 l0 14.02 q0 0.36 -0.26 0.62 t-0.62 0.26 z M53.38 24.3 l-7.02 0 q-0.36 0 -0.62 -0.26 t-0.26 -0.62 q0 -0.38 0.26 -0.64 t0.62 -0.26 l7.02 0 q0.36 0 0.62 0.26 t0.26 0.64 q0 0.36 -0.26 0.62 t-0.62 0.26 z M63.8 24.3 q-1.66 0 -3.11 -0.63 t-2.53 -1.71 t-1.71 -2.53 t-0.63 -3.11 q0 -1.64 0.63 -3.07 t1.71 -2.48 t2.53 -1.65 t3.11 -0.6 q1.6 0 3.04 0.59 t2.58 1.73 q0.28 0.28 0.28 0.64 t-0.28 0.62 q-0.26 0.26 -0.62 0.26 t-0.62 -0.26 q-0.9 -0.9 -2.02 -1.36 t-2.36 -0.46 q-1.3 0 -2.43 0.47 t-1.97 1.28 t-1.32 1.91 t-0.48 2.38 t0.49 2.41 t1.33 1.97 t1.97 1.33 t2.41 0.49 q1.24 0 2.36 -0.46 t2.02 -1.34 q0.26 -0.28 0.62 -0.28 t0.62 0.28 q0.28 0.26 0.28 0.62 t-0.28 0.62 q-1.14 1.14 -2.58 1.74 t-3.04 0.6 z M76.86 24.3 q-1.06 0 -2 -0.41 t-1.64 -1.11 t-1.11 -1.63 t-0.41 -1.99 t0.41 -2 t1.11 -1.64 t1.64 -1.11 t2 -0.41 t1.99 0.41 t1.63 1.11 t1.11 1.64 t0.41 2 t-0.41 1.99 t-1.11 1.63 t-1.63 1.11 t-1.99 0.41 z M76.86 15.78 q-0.7 0 -1.31 0.27 t-1.07 0.73 t-0.73 1.07 t-0.27 1.31 t0.27 1.31 t0.73 1.07 t1.07 0.72 t1.31 0.26 t1.31 -0.26 t1.07 -0.72 t0.72 -1.07 t0.26 -1.31 t-0.27 -1.31 t-0.72 -1.07 t-1.07 -0.73 t-1.3 -0.27 z M85.32000000000001 24.3 q-0.36 0 -0.62 -0.26 t-0.26 -0.62 l0 -14.02 q0 -0.36 0.26 -0.62 t0.62 -0.26 t0.62 0.26 t0.26 0.62 l0 14.02 q0 0.36 -0.26 0.62 t-0.62 0.26 z M93.82 24.3 q-1.06 0 -2 -0.41 t-1.64 -1.11 t-1.11 -1.63 t-0.41 -1.99 t0.41 -2 t1.11 -1.64 t1.64 -1.11 t2 -0.41 t1.99 0.41 t1.63 1.11 t1.11 1.64 t0.41 2 t-0.41 1.99 t-1.11 1.63 t-1.63 1.11 t-1.99 0.41 z M93.82 15.78 q-0.7 0 -1.31 0.27 t-1.07 0.73 t-0.73 1.07 t-0.27 1.31 t0.27 1.31 t0.73 1.07 t1.07 0.72 t1.31 0.26 t1.31 -0.26 t1.07 -0.72 t0.72 -1.07 t0.26 -1.31 t-0.27 -1.31 t-0.72 -1.07 t-1.07 -0.73 t-1.3 -0.27 z M103.11999999999999 14.58 q0.32 -0.28 0.71 -0.43 t0.79 -0.15 q0.98 0 1.61 0.48 t0.97 1.38 q0.08 0.2 0.06 0.42 t-0.13 0.4 t-0.3 0.29 t-0.45 0.11 q-0.22 0 -0.39 -0.1 t-0.29 -0.24 q-0.1 -0.12 -0.17 -0.25 t-0.15 -0.27 q-0.14 -0.22 -0.31 -0.36 t-0.57 -0.1 q-0.26 0.02 -0.5 0.16 t-0.42 0.34 t-0.29 0.45 t-0.11 0.51 l0 6.2 q0 0.36 -0.26 0.62 t-0.62 0.26 q-0.38 0 -0.64 -0.26 t-0.26 -0.62 l0 -8.54 q0 -0.36 0.26 -0.62 t0.64 -0.26 q0.28 0 0.5 0.16 t0.32 0.42 z M114.38 24.3 q-0.96 0 -1.82 -0.33 t-1.56 -0.93 l0 4.86 q0 0.38 -0.26 0.64 t-0.62 0.26 q-0.38 0 -0.64 -0.26 t-0.26 -0.64 l0 -13.02 q0 -0.36 0.26 -0.62 t0.64 -0.26 q0.36 0 0.62 0.26 t0.26 0.62 l0 0.38 q0.7 -0.6 1.56 -0.93 t1.82 -0.33 q1.06 0 2 0.41 t1.64 1.11 t1.1 1.63 t0.4 1.99 t-0.4 2 t-1.1 1.64 t-1.64 1.11 t-2 0.41 z M114.38 15.78 q-0.7 0 -1.31 0.26 t-1.07 0.72 t-0.73 1.07 t-0.27 1.31 t0.27 1.31 t0.73 1.07 t1.07 0.73 t1.31 0.27 t1.31 -0.27 t1.07 -0.73 t0.72 -1.07 t0.26 -1.31 t-0.26 -1.31 t-0.72 -1.07 t-1.07 -0.72 t-1.31 -0.26 z M123.14 12.64 q-0.48 0 -0.83 -0.35 t-0.35 -0.83 q0 -0.5 0.35 -0.83 t0.83 -0.33 q0.5 0 0.84 0.33 t0.34 0.83 q0 0.48 -0.35 0.83 t-0.83 0.35 z M123.14 24.3 q-0.36 0 -0.62 -0.26 t-0.26 -0.62 l0 -8.54 q0 -0.36 0.26 -0.62 t0.62 -0.26 t0.63 0.26 t0.27 0.62 l0 8.54 q0 0.36 -0.27 0.62 t-0.63 0.26 z M134.92 17.02 q-0.2 0 -0.34 -0.07 t-0.26 -0.17 q-0.58 -0.5 -1.12 -0.75 t-1.28 -0.25 q-0.7 0 -1.31 0.27 t-1.07 0.73 t-0.73 1.07 t-0.27 1.31 t0.27 1.31 t0.73 1.07 t1.07 0.72 t1.31 0.26 q0.74 0 1.28 -0.25 t1.12 -0.75 q0.12 -0.1 0.26 -0.17 t0.34 -0.07 q0.38 0 0.64 0.26 t0.26 0.62 q0 0.2 -0.08 0.35 t-0.18 0.27 q-0.34 0.36 -0.77 0.65 t-0.91 0.48 t-0.98 0.29 t-0.98 0.1 q-1.06 0 -2 -0.41 t-1.64 -1.11 t-1.11 -1.63 t-0.41 -1.99 t0.41 -2 t1.11 -1.64 t1.64 -1.11 t2 -0.41 q0.48 0 0.98 0.1 t0.98 0.29 t0.91 0.48 t0.77 0.65 q0.1 0.12 0.18 0.27 t0.08 0.35 q0 0.36 -0.26 0.62 t-0.64 0.26 z M144.94 15.48 l-3.8 3.64 l3.8 3.66 q0.28 0.24 0.28 0.64 q0 0.36 -0.26 0.62 t-0.62 0.26 q-0.38 0 -0.62 -0.24 l-3.88 -3.72 l0 3.08 q0 0.36 -0.26 0.62 t-0.62 0.26 t-0.62 -0.26 t-0.26 -0.62 l0 -14.02 q0 -0.36 0.26 -0.62 t0.62 -0.26 t0.62 0.26 t0.26 0.62 l0 8.52 l3.88 -3.72 q0.24 -0.24 0.62 -0.24 q0.36 0 0.62 0.26 t0.26 0.62 t-0.28 0.64 z M155.74 19.62 l-7.58 0 q0.08 0.62 0.37 1.15 t0.74 0.92 t1.02 0.61 t1.21 0.22 q0.38 0 0.69 -0.06 t0.58 -0.19 t0.54 -0.32 t0.59 -0.43 q0.12 -0.1 0.25 -0.17 t0.35 -0.07 q0.38 0 0.64 0.26 t0.26 0.62 q0 0.22 -0.08 0.36 t-0.18 0.26 q-0.32 0.36 -0.75 0.65 t-0.92 0.48 t-1 0.29 t-0.97 0.1 q-1.06 0 -2 -0.41 t-1.64 -1.11 t-1.11 -1.63 t-0.41 -1.99 t0.41 -2 t1.11 -1.64 t1.64 -1.11 t2 -0.41 q1.02 0 1.92 0.34 t1.6 0.97 t1.12 1.5 t0.48 1.91 q0.02 0.4 -0.25 0.65 t-0.63 0.25 z M151.5 15.78 q-1.04 0 -1.88 0.57 t-1.24 1.49 l6.22 0 q-0.38 -0.94 -1.23 -1.5 t-1.87 -0.56 z M160.78 14.58 q0.32 -0.28 0.71 -0.43 t0.79 -0.15 q0.98 0 1.61 0.48 t0.97 1.38 q0.08 0.2 0.06 0.42 t-0.13 0.4 t-0.3 0.29 t-0.45 0.11 q-0.22 0 -0.39 -0.1 t-0.29 -0.24 q-0.1 -0.12 -0.17 -0.25 t-0.15 -0.27 q-0.14 -0.22 -0.31 -0.36 t-0.57 -0.1 q-0.26 0.02 -0.5 0.16 t-0.42 0.34 t-0.29 0.45 t-0.11 0.51 l0 6.2 q0 0.36 -0.26 0.62 t-0.62 0.26 q-0.38 0 -0.64 -0.26 t-0.26 -0.62 l0 -8.54 q0 -0.36 0.26 -0.62 t0.64 -0.26 q0.28 0 0.5 0.16 t0.32 0.42 z"></path></g></svg>