<?xml version="1.0" standalone="no"?>
<!DOCTYPE svg PUBLIC "-//W3C//DTD SVG 20010904//EN"
 "http://www.w3.org/TR/2001/REC-SVG-20010904/DTD/svg10.dtd">
<svg version="1.0" xmlns="http://www.w3.org/2000/svg"
 width="465.000000pt" height="132.000000pt" viewBox="0 0 465.000000 132.000000"
 preserveAspectRatio="xMidYMid meet">
<metadata>
Created by potrace 1.15, written by Peter Selinger 2001-2017
</metadata>
<g transform="translate(0.000000,132.000000) scale(0.100000,-0.100000)"
fill="#000000" stroke="none">
<path d="M30 670 l0 -620 620 0 620 0 0 620 0 620 -620 0 -620 0 0 -620z
m1230 0 l0 -610 -610 0 -610 0 0 610 0 610 610 0 610 0 0 -610z"/>
<path d="M70 670 l0 -580 580 0 580 0 0 580 0 580 -580 0 -580 0 0 -580z
m1150 0 l0 -570 -570 0 -570 0 0 570 0 570 570 0 570 0 0 -570z"/>
<path d="M1495 850 c-32 -13 -66 -50 -82 -88 -37 -90 40 -202 139 -202 43 1
118 35 118 55 0 20 -13 19 -52 -5 -40 -24 -69 -25 -114 -4 -84 40 -86 167 -3
210 39 19 78 18 117 -6 39 -24 55 -25 50 -4 -8 40 -117 68 -173 44z"/>
<path d="M2542 843 c-73 -36 -100 -120 -62 -198 36 -74 116 -104 193 -72 39
17 63 42 47 52 -6 3 -26 -3 -46 -16 -89 -54 -205 32 -175 131 23 78 107 112
176 71 39 -23 65 -20 44 6 -36 43 -118 55 -177 26z"/>
<path d="M4054 847 c-2 -7 -3 -73 -2 -147 2 -96 7 -135 16 -138 8 -2 12 8 12
32 0 20 3 36 7 36 4 0 24 -16 44 -36 54 -53 73 -34 20 20 l-41 42 40 39 c66
64 46 79 -26 19 l-44 -35 0 90 c0 56 -4 91 -10 91 -6 0 -13 -6 -16 -13z"/>
<path d="M1785 753 c-53 -13 -89 -87 -65 -134 40 -77 148 -77 180 0 29 72 -39
151 -115 134z"/>
<path d="M2014 753 c-40 -8 -69 -50 -69 -100 0 -38 5 -49 30 -69 56 -45 136
-22 156 44 15 51 -8 97 -56 118 -19 8 -36 13 -37 13 -2 -1 -13 -4 -24 -6z"/>
<path d="M2843 752 c-34 -5 -73 -58 -73 -99 0 -25 8 -43 29 -64 39 -38 87 -39
130 -3 56 47 36 144 -34 162 -17 4 -40 6 -52 4z"/>
<path d="M3165 748 c-68 -18 -88 -106 -36 -159 87 -86 215 35 136 129 -28 33
-57 42 -100 30z"/>
<path d="M3586 753 c-2 -3 -24 -6 -48 -7 l-43 -2 -3 -125 c-2 -125 7 -171 28
-139 5 8 10 34 10 58 0 39 2 42 19 32 62 -33 141 20 141 94 0 32 -43 82 -75
88 -13 3 -27 3 -29 1z"/>
<path d="M4257 739 c-26 -15 -46 -68 -40 -102 7 -34 56 -77 88 -77 33 0 75 20
75 37 0 15 -26 18 -35 3 -16 -25 -95 4 -95 35 0 11 19 15 78 17 76 3 77 3 74
28 -5 55 -92 90 -145 59z"/>
</g>
</svg>
